<svg width="160" height="40" viewBox="0 0 160 40" fill="none" xmlns="http://www.w3.org/2000/svg">
<path d="M20.4819 18.1676H16.5465L16.5206 7.29298L11.1871 16.247H9.32296L3.98947 7.50061V18.1676H0.0540762V0H3.52344L10.3068 11.2898L16.9866 0H20.456L20.4819 18.1676Z" fill="#1A1A1A"/>
<path d="M30.0845 3.99687C34.3306 3.99687 36.7902 5.96934 36.7902 10.1998V18.1676H33.0102V16.4287C32.2593 17.7004 30.8095 18.3752 28.7641 18.3752C25.5019 18.3752 23.56 16.5584 23.56 14.1447C23.56 11.6791 25.2947 9.96621 29.5408 9.96621H32.7513C32.7513 8.22731 31.7156 7.21512 29.5408 7.21512C28.065 7.21512 26.5375 7.70824 25.5277 8.5128L24.0779 5.68385C25.6054 4.5938 27.8579 3.99687 30.0845 3.99687ZM29.7738 15.6501C31.1201 15.6501 32.2852 15.0272 32.7513 13.7554V12.328H29.981C28.0909 12.328 27.4954 13.0287 27.4954 13.9631C27.4954 14.9753 28.3498 15.6501 29.7738 15.6501Z" fill="#1A1A1A"/>
<path d="M46.9269 18.3752C42.396 18.3752 39.1596 15.3905 39.1596 11.186C39.1596 6.98154 42.396 3.99687 46.9269 3.99687C49.8525 3.99687 52.1568 5.26859 53.1665 7.55252L50.0337 9.2395C49.2829 7.91587 48.1696 7.31893 46.901 7.31893C44.8556 7.31893 43.2504 8.74638 43.2504 11.186C43.2504 13.6257 44.8556 15.0531 46.901 15.0531C48.1696 15.0531 49.2829 14.4821 50.0337 13.1326L53.1665 14.8455C52.1568 17.0775 49.8525 18.3752 46.9269 18.3752Z" fill="#1A1A1A"/>
<path d="M67.2729 4.20449V7.52656H62.5608V18.1676H58.5478V7.52656H53.8356V4.20449H67.2729Z" fill="#1A1A1A"/>
<path d="M82.3853 11.2379C82.3853 11.5494 82.3335 11.9906 82.3076 12.328H71.77C72.1584 14.0669 73.6342 15.131 75.7572 15.131C77.233 15.131 78.2945 14.6898 79.2525 13.7814L81.4014 16.1172C80.1069 17.5966 78.1651 18.3752 75.6536 18.3752C70.838 18.3752 67.7052 15.3386 67.7052 11.186C67.7052 7.00749 70.8898 3.99687 75.1358 3.99687C79.2266 3.99687 82.3853 6.74795 82.3853 11.2379ZM75.1617 7.0594C73.3235 7.0594 72.0031 8.1754 71.7183 9.96621H78.5793C78.2945 8.20136 76.9741 7.0594 75.1617 7.0594Z" fill="#1A1A1A"/>
<path d="M93.6886 3.99687C97.5981 3.99687 100.627 6.79986 100.627 11.186C100.627 15.5722 97.5981 18.3752 93.6886 18.3752C91.9539 18.3752 90.5299 17.8302 89.4943 16.6882V23.2026H85.4553V4.20449H89.313V5.81362C90.3228 4.5938 91.8244 3.99687 93.6886 3.99687ZM92.9895 15.0531C95.009 15.0531 96.5366 13.5997 96.5366 11.186C96.5366 8.77234 95.009 7.31893 92.9895 7.31893C90.9701 7.31893 89.4425 8.77234 89.4425 11.186C89.4425 13.5997 90.9701 15.0531 92.9895 15.0531Z" fill="#1A1A1A"/>
<path d="M125.257 14.7417H127.794V21.9308H123.911V18.1676H111.12V21.9308H107.237L107.263 14.7417H107.988C110.344 14.6638 110.939 10.7708 111.12 5.68385L111.328 0H125.257V14.7417ZM114.823 6.07316C114.668 9.94025 114.253 13.2623 113.011 14.7417H121.114V3.42588H114.901L114.823 6.07316Z" fill="#1A1A1A"/>
<path d="M143.671 11.2379C143.671 11.5494 143.619 11.9906 143.593 12.328H133.056C133.444 14.0669 134.92 15.131 137.043 15.131C138.519 15.131 139.58 14.6898 140.538 13.7814L142.687 16.1172C141.392 17.5966 139.451 18.3752 136.939 18.3752C132.124 18.3752 128.991 15.3386 128.991 11.186C128.991 7.00749 132.175 3.99687 136.421 3.99687C140.512 3.99687 143.671 6.74795 143.671 11.2379ZM136.447 7.0594C134.609 7.0594 133.289 8.1754 133.004 9.96621H139.865C139.58 8.20136 138.26 7.0594 136.447 7.0594Z" fill="#1A1A1A"/>
<path d="M148.09 4.20449H160V18.1676H155.961V7.52656H151.56L151.43 9.99216C151.223 14.9753 150.42 18.4531 146.977 18.4531C146.356 18.4531 145.682 18.3492 144.88 18.1416L145.087 14.8195C145.294 14.8455 145.501 14.8714 145.682 14.8714C147.598 14.8714 147.754 12.4578 147.883 9.81048L148.09 4.20449Z" fill="#1A1A1A"/>
<path d="M6.97756 31.3758V37.6328H6.20623V32.6843L3.67864 36.8715H3.29891L0.771329 32.6724V37.6328H0V31.3758H0.854395L3.50065 35.8842L6.19436 31.3758H6.97756Z" fill="#1A1A1A"/>
<path d="M13.4216 31.3282C14.2364 31.3282 14.8614 31.5344 15.2965 31.9468C15.7316 32.3512 15.9492 32.9539 15.9492 33.7549V37.6328H15.1422V36.6574C14.9524 36.9825 14.6715 37.2363 14.2997 37.4187C13.9358 37.6011 13.5007 37.6923 12.9944 37.6923C12.2982 37.6923 11.7444 37.5258 11.3331 37.1927C10.9217 36.8596 10.716 36.4195 10.716 35.8723C10.716 35.341 10.9059 34.9127 11.2856 34.5876C11.6732 34.2624 12.2863 34.0999 13.1249 34.0999H15.1066V33.7192C15.1066 33.18 14.9563 32.7715 14.6557 32.494C14.3551 32.2085 13.916 32.0658 13.3385 32.0658C12.943 32.0658 12.5632 32.1332 12.1993 32.268C11.8354 32.3949 11.5229 32.5733 11.2619 32.8033L10.8821 32.1728C11.1986 31.9032 11.5783 31.697 12.0213 31.5542C12.4643 31.4036 12.9311 31.3282 13.4216 31.3282ZM13.1249 37.0261C13.5996 37.0261 14.007 36.9191 14.3472 36.705C14.6874 36.4829 14.9405 36.1657 15.1066 35.7533V34.7303H13.1486C12.0807 34.7303 11.5467 35.1031 11.5467 35.8485C11.5467 36.2133 11.6851 36.5027 11.962 36.7169C12.2389 36.923 12.6265 37.0261 13.1249 37.0261Z" fill="#1A1A1A"/>
<path d="M22.7014 37.6923C22.0843 37.6923 21.5305 37.5575 21.04 37.2878C20.5575 37.0182 20.1777 36.6415 19.9008 36.1578C19.6239 35.6661 19.4855 35.1149 19.4855 34.5043C19.4855 33.8937 19.6239 33.3465 19.9008 32.8627C20.1777 32.379 20.5575 32.0023 21.04 31.7327C21.5305 31.463 22.0843 31.3282 22.7014 31.3282C23.2393 31.3282 23.7179 31.4353 24.1372 31.6494C24.5644 31.8556 24.9006 32.1609 25.1459 32.5654L24.5169 32.9936C24.3113 32.6843 24.0502 32.4543 23.7337 32.3037C23.4173 32.1451 23.0732 32.0658 22.7014 32.0658C22.2504 32.0658 21.843 32.1688 21.4791 32.375C21.1231 32.5733 20.8423 32.8588 20.6366 33.2315C20.4388 33.6042 20.3399 34.0285 20.3399 34.5043C20.3399 34.9881 20.4388 35.4163 20.6366 35.789C20.8423 36.1538 21.1231 36.4393 21.4791 36.6455C21.843 36.8437 22.2504 36.9429 22.7014 36.9429C23.0732 36.9429 23.4173 36.8675 23.7337 36.7169C24.0502 36.5662 24.3113 36.3362 24.5169 36.0269L25.1459 36.4552C24.9006 36.8596 24.5644 37.1689 24.1372 37.383C23.71 37.5892 23.2314 37.6923 22.7014 37.6923Z" fill="#1A1A1A"/>
<path d="M32.9507 32.1252H30.5892V37.6328H29.7467V32.1252H27.3852V31.3758H32.9507V32.1252Z" fill="#1A1A1A"/>
<path d="M41.2364 34.766H36.0151C36.0626 35.4163 36.3118 35.9437 36.7627 36.3481C37.2136 36.7446 37.7832 36.9429 38.4715 36.9429C38.8591 36.9429 39.2151 36.8755 39.5395 36.7407C39.8638 36.5979 40.1447 36.3917 40.382 36.1221L40.8567 36.6693C40.5798 37.0024 40.2317 37.2561 39.8124 37.4306C39.401 37.6051 38.9462 37.6923 38.4478 37.6923C37.807 37.6923 37.2374 37.5575 36.739 37.2878C36.2485 37.0103 35.8648 36.6296 35.5879 36.1459C35.311 35.6621 35.1726 35.1149 35.1726 34.5043C35.1726 33.8937 35.3031 33.3465 35.5642 32.8627C35.8332 32.379 36.1971 32.0023 36.6559 31.7327C37.1227 31.463 37.6448 31.3282 38.2223 31.3282C38.7998 31.3282 39.318 31.463 39.7768 31.7327C40.2357 32.0023 40.5956 32.379 40.8567 32.8627C41.1177 33.3386 41.2483 33.8857 41.2483 34.5043L41.2364 34.766ZM38.2223 32.0539C37.6211 32.0539 37.1148 32.2481 36.7034 32.6367C36.2999 33.0174 36.0705 33.517 36.0151 34.1356H40.4414C40.386 33.517 40.1526 33.0174 39.7412 32.6367C39.3378 32.2481 38.8314 32.0539 38.2223 32.0539Z" fill="#1A1A1A"/>
<path d="M48.2278 31.3282C48.8132 31.3282 49.3432 31.463 49.8179 31.7327C50.2926 31.9944 50.6644 32.3671 50.9334 32.8508C51.2023 33.3346 51.3368 33.8857 51.3368 34.5043C51.3368 35.1308 51.2023 35.6859 50.9334 36.1697C50.6644 36.6534 50.2926 37.0301 49.8179 37.2997C49.3512 37.5614 48.8211 37.6923 48.2278 37.6923C47.7215 37.6923 47.2626 37.5892 46.8513 37.383C46.4478 37.1689 46.1155 36.8596 45.8545 36.4552V39.9405H45.0119V31.3758H45.8189V32.6129C46.072 32.2006 46.4043 31.8834 46.8157 31.6613C47.2349 31.4393 47.7057 31.3282 48.2278 31.3282ZM48.1684 36.9429C48.6036 36.9429 48.9991 36.8437 49.3551 36.6455C49.7111 36.4393 49.988 36.1498 50.1858 35.7771C50.3915 35.4044 50.4943 34.9801 50.4943 34.5043C50.4943 34.0285 50.3915 33.6082 50.1858 33.2434C49.988 32.8707 49.7111 32.5812 49.3551 32.375C48.9991 32.1688 48.6036 32.0658 48.1684 32.0658C47.7254 32.0658 47.3259 32.1688 46.9699 32.375C46.6218 32.5812 46.3449 32.8707 46.1393 33.2434C45.9415 33.6082 45.8426 34.0285 45.8426 34.5043C45.8426 34.9801 45.9415 35.4044 46.1393 35.7771C46.3449 36.1498 46.6218 36.4393 46.9699 36.6455C47.3259 36.8437 47.7254 36.9429 48.1684 36.9429Z" fill="#1A1A1A"/>
<path d="M57.1588 31.3282C57.9736 31.3282 58.5986 31.5344 59.0337 31.9468C59.4688 32.3512 59.6864 32.9539 59.6864 33.7549V37.6328H58.8794V36.6574C58.6896 36.9825 58.4087 37.2363 58.0369 37.4187C57.673 37.6011 57.2379 37.6923 56.7316 37.6923C56.0354 37.6923 55.4816 37.5258 55.0703 37.1927C54.6589 36.8596 54.4532 36.4195 54.4532 35.8723C54.4532 35.341 54.6431 34.9127 55.0228 34.5876C55.4104 34.2624 56.0235 34.0999 56.8621 34.0999H58.8438V33.7192C58.8438 33.18 58.6935 32.7715 58.3929 32.494C58.0923 32.2085 57.6532 32.0658 57.0757 32.0658C56.6802 32.0658 56.3004 32.1332 55.9365 32.268C55.5726 32.3949 55.2601 32.5733 54.9991 32.8033L54.6193 32.1728C54.9358 31.9032 55.3155 31.697 55.7585 31.5542C56.2015 31.4036 56.6683 31.3282 57.1588 31.3282ZM56.8621 37.0261C57.3368 37.0261 57.7442 36.9191 58.0844 36.705C58.4246 36.4829 58.6777 36.1657 58.8438 35.7533V34.7303H56.8859C55.8179 34.7303 55.2839 35.1031 55.2839 35.8485C55.2839 36.2133 55.4223 36.5027 55.6992 36.7169C55.9761 36.923 56.3637 37.0261 56.8621 37.0261Z" fill="#1A1A1A"/>
<path d="M68.2355 31.3758H69.0781V34.1474H73.0059V31.3758H73.8484V37.6328H73.0059V34.8731H69.0781V37.6328H68.2355V31.3758Z" fill="#1A1A1A"/>
<path d="M80.2897 31.3282C81.1045 31.3282 81.7295 31.5344 82.1646 31.9468C82.5997 32.3512 82.8173 32.9539 82.8173 33.7549V37.6328H82.0103V36.6574C81.8205 36.9825 81.5396 37.2363 81.1678 37.4187C80.8039 37.6011 80.3688 37.6923 79.8625 37.6923C79.1663 37.6923 78.6125 37.5258 78.2012 37.1927C77.7898 36.8596 77.5841 36.4195 77.5841 35.8723C77.5841 35.341 77.774 34.9127 78.1537 34.5876C78.5413 34.2624 79.1544 34.0999 79.993 34.0999H81.9747V33.7192C81.9747 33.18 81.8244 32.7715 81.5238 32.494C81.2232 32.2085 80.7841 32.0658 80.2066 32.0658C79.8111 32.0658 79.4313 32.1332 79.0674 32.268C78.7035 32.3949 78.391 32.5733 78.13 32.8033L77.7502 32.1728C78.0667 31.9032 78.4464 31.697 78.8894 31.5542C79.3324 31.4036 79.7992 31.3282 80.2897 31.3282ZM79.993 37.0261C80.4677 37.0261 80.8751 36.9191 81.2153 36.705C81.5555 36.4829 81.8086 36.1657 81.9747 35.7533V34.7303H80.0167C78.9488 34.7303 78.4148 35.1031 78.4148 35.8485C78.4148 36.2133 78.5532 36.5027 78.8301 36.7169C79.107 36.923 79.4946 37.0261 79.993 37.0261Z" fill="#1A1A1A"/>
<path d="M94.9385 34.3973C95.785 34.5955 96.2082 35.107 96.2082 35.9318C96.2082 36.479 96.0065 36.8993 95.603 37.1927C95.1995 37.4861 94.5983 37.6328 93.7993 37.6328H90.9632V31.3758H93.7162C94.4282 31.3758 94.9859 31.5146 95.3894 31.7922C95.7929 32.0697 95.9946 32.4662 95.9946 32.9817C95.9946 33.3227 95.8997 33.6161 95.7098 33.862C95.5279 34.0999 95.2707 34.2783 94.9385 34.3973ZM91.782 34.1593H93.6569C94.1395 34.1593 94.5073 34.0681 94.7605 33.8857C95.0215 33.7034 95.1521 33.4377 95.1521 33.0888C95.1521 32.7398 95.0215 32.4781 94.7605 32.3037C94.5073 32.1292 94.1395 32.042 93.6569 32.042H91.782V34.1593ZM93.7637 36.9667C94.3016 36.9667 94.7051 36.8794 94.9741 36.705C95.2431 36.5305 95.3775 36.2569 95.3775 35.8842C95.3775 35.5115 95.2549 35.2379 95.0097 35.0634C94.7644 34.881 94.3768 34.7898 93.8467 34.7898H91.782V36.9667H93.7637Z" fill="#1A1A1A"/>
<path d="M102.692 37.6923C102.075 37.6923 101.521 37.5575 101.031 37.2878C100.548 37.0182 100.168 36.6415 99.8916 36.1578C99.6147 35.6661 99.4762 35.1149 99.4762 34.5043C99.4762 33.8937 99.6147 33.3465 99.8916 32.8627C100.168 32.379 100.548 32.0023 101.031 31.7327C101.521 31.463 102.075 31.3282 102.692 31.3282C103.23 31.3282 103.709 31.4353 104.128 31.6494C104.555 31.8556 104.891 32.1609 105.137 32.5654L104.508 32.9936C104.302 32.6843 104.041 32.4543 103.724 32.3037C103.408 32.1451 103.064 32.0658 102.692 32.0658C102.241 32.0658 101.834 32.1688 101.47 32.375C101.114 32.5733 100.833 32.8588 100.627 33.2315C100.43 33.6042 100.331 34.0285 100.331 34.5043C100.331 34.9881 100.43 35.4163 100.627 35.789C100.833 36.1538 101.114 36.4393 101.47 36.6455C101.834 36.8437 102.241 36.9429 102.692 36.9429C103.064 36.9429 103.408 36.8675 103.724 36.7169C104.041 36.5662 104.302 36.3362 104.508 36.0269L105.137 36.4552C104.891 36.8596 104.555 37.1689 104.128 37.383C103.701 37.5892 103.222 37.6923 102.692 37.6923Z" fill="#1A1A1A"/>
<path d="M114.021 34.766H108.8C108.847 35.4163 109.096 35.9437 109.547 36.3481C109.998 36.7446 110.568 36.9429 111.256 36.9429C111.644 36.9429 112 36.8755 112.324 36.7407C112.648 36.5979 112.929 36.3917 113.167 36.1221L113.641 36.6693C113.364 37.0024 113.016 37.2561 112.597 37.4306C112.186 37.6051 111.731 37.6923 111.232 37.6923C110.592 37.6923 110.022 37.5575 109.524 37.2878C109.033 37.0103 108.649 36.6296 108.372 36.1459C108.096 35.6621 107.957 35.1149 107.957 34.5043C107.957 33.8937 108.088 33.3465 108.349 32.8627C108.618 32.379 108.982 32.0023 109.44 31.7327C109.907 31.463 110.429 31.3282 111.007 31.3282C111.584 31.3282 112.103 31.463 112.561 31.7327C113.02 32.0023 113.38 32.379 113.641 32.8627C113.902 33.3386 114.033 33.8857 114.033 34.5043L114.021 34.766ZM111.007 32.0539C110.406 32.0539 109.899 32.2481 109.488 32.6367C109.084 33.0174 108.855 33.517 108.8 34.1356H113.226C113.171 33.517 112.937 33.0174 112.526 32.6367C112.122 32.2481 111.616 32.0539 111.007 32.0539Z" fill="#1A1A1A"/>
<path d="M125.017 31.3282C125.602 31.3282 126.132 31.463 126.607 31.7327C127.082 31.9944 127.453 32.3671 127.722 32.8508C127.991 33.3346 128.126 33.8857 128.126 34.5043C128.126 35.1308 127.991 35.6859 127.722 36.1697C127.453 36.6534 127.082 37.0301 126.607 37.2997C126.14 37.5614 125.61 37.6923 125.017 37.6923C124.51 37.6923 124.052 37.5892 123.64 37.383C123.237 37.1689 122.904 36.8596 122.643 36.4552V39.9405H121.801V31.3758H122.608V32.6129C122.861 32.2006 123.193 31.8834 123.605 31.6613C124.024 31.4393 124.495 31.3282 125.017 31.3282ZM124.957 36.9429C125.393 36.9429 125.788 36.8437 126.144 36.6455C126.5 36.4393 126.777 36.1498 126.975 35.7771C127.18 35.4044 127.283 34.9801 127.283 34.5043C127.283 34.0285 127.18 33.6082 126.975 33.2434C126.777 32.8707 126.5 32.5812 126.144 32.375C125.788 32.1688 125.393 32.0658 124.957 32.0658C124.514 32.0658 124.115 32.1688 123.759 32.375C123.411 32.5812 123.134 32.8707 122.928 33.2434C122.73 33.6082 122.632 34.0285 122.632 34.5043C122.632 34.9801 122.73 35.4044 122.928 35.7771C123.134 36.1498 123.411 36.4393 123.759 36.6455C124.115 36.8437 124.514 36.9429 124.957 36.9429Z" fill="#1A1A1A"/>
<path d="M136.965 31.3758L133.844 38.3822C133.591 38.9691 133.298 39.3854 132.966 39.6312C132.634 39.8771 132.234 40 131.768 40C131.467 40 131.186 39.9524 130.925 39.8573C130.664 39.7621 130.439 39.6193 130.249 39.429L130.64 38.7986C130.957 39.1158 131.336 39.2744 131.779 39.2744C132.064 39.2744 132.306 39.1951 132.503 39.0365C132.709 38.8779 132.899 38.6082 133.073 38.2276L133.346 37.6209L130.557 31.3758H131.435L133.785 36.6931L136.135 31.3758H136.965Z" fill="#1A1A1A"/>
<path d="M142.443 34.8493H141.019V37.6328H140.176V31.3758H141.019V34.1237H142.455L144.65 31.3758H145.564L143.108 34.4091L145.742 37.6328H144.745L142.443 34.8493Z" fill="#1A1A1A"/>
<path d="M148.97 31.3758H149.813V36.3481L153.978 31.3758H154.726V37.6328H153.883V32.6605L149.73 37.6328H148.97V31.3758Z" fill="#1A1A1A"/>
<path d="M158.885 29.306H159.881L159.703 35.1348H159.051L158.885 29.306ZM159.383 37.6923C159.209 37.6923 159.059 37.6328 158.932 37.5139C158.813 37.387 158.754 37.2403 158.754 37.0737C158.754 36.8993 158.813 36.7565 158.932 36.6455C159.051 36.5265 159.201 36.4671 159.383 36.4671C159.557 36.4671 159.703 36.5265 159.822 36.6455C159.941 36.7565 160 36.8993 160 37.0737C160 37.2403 159.941 37.387 159.822 37.5139C159.703 37.6328 159.557 37.6923 159.383 37.6923Z" fill="#1A1A1A"/>
</svg>
