<svg width="110" height="124" viewBox="0 0 110 124" fill="none" xmlns="http://www.w3.org/2000/svg">
<g clip-path="url(#clip0_51_702)">
<path d="M109.992 5.07437C110.126 3.05435 108.59 1.41968 106.56 1.41968H50.1352C48.1053 1.41968 46.3526 3.05841 46.2181 5.07437L44.922 24.5079L36.7984 84.3175C36.5253 86.3376 37.9479 87.9722 39.9736 87.9722H96.4023C98.4322 87.9722 100.299 86.3335 100.572 84.3175L108.696 24.5079L109.992 5.07437Z" fill="#35488B"/>
<path opacity="0.2" d="M109.992 5.07437C110.126 3.05435 108.59 1.41968 106.56 1.41968H50.1352C48.1053 1.41968 46.3526 3.05841 46.2181 5.07437L44.922 24.5079L36.7984 84.3175C36.5253 86.3376 37.9479 87.9722 39.9736 87.9722H96.4023C98.4322 87.9722 100.299 86.3335 100.572 84.3175L108.696 24.5079L109.992 5.07437Z" fill="#1A1A1A"/>
<path d="M94.3928 87.9763H37.9683C35.9384 87.9763 34.5159 86.3376 34.789 84.3216L42.9125 24.512H106.686L98.5626 84.3216C98.2895 86.3416 96.4227 87.9763 94.3928 87.9763Z" fill="#35488B"/>
<path d="M58.5237 0H50.1189V0.405626H58.5237V0Z" fill="#35488B"/>
<path d="M46.1448 0.83559L45.9777 0.46647C46.6665 0.154138 47.388 0 48.1298 0V0.405626C47.4491 0.405626 46.7806 0.551652 46.1489 0.83559H46.1448Z" fill="#35488B"/>
<path d="M104.554 1.41968H48.1257C46.0959 1.41968 44.3432 3.05841 44.2087 5.07437L42.9125 24.5079H106.686L107.982 5.07437C108.117 3.05435 106.58 1.41968 104.55 1.41968H104.554Z" fill="#35488B"/>
<path opacity="0.9" d="M46.0633 19.7661L46.9682 6.16549C47.0375 5.10275 47.9627 4.23877 49.0306 4.23877H103.266C104.334 4.23877 105.141 5.0987 105.072 6.16549L104.167 19.7661C104.098 20.8289 103.173 21.6929 102.105 21.6929H47.869C46.8011 21.6929 45.994 20.8329 46.0633 19.7661Z" fill="white"/>
<g opacity="0.4">
<path d="M99.3615 6.46976L98.746 7.04169C98.7134 7.07008 98.6726 7.08631 98.6319 7.08631H95.3629C95.3181 7.08631 95.2732 7.06603 95.2406 7.03358L94.7107 6.46165C94.6129 6.35618 94.6863 6.18176 94.833 6.18176H99.2474C99.3982 6.18176 99.4716 6.36429 99.3615 6.46976Z" fill="#35488B"/>
<path d="M98.4974 17.012H94.083C93.9322 17.012 93.8589 16.8294 93.9689 16.724L94.5844 16.152C94.617 16.1236 94.6578 16.1074 94.6985 16.1074H97.9675C98.0123 16.1074 98.0572 16.1277 98.0898 16.1602L98.6238 16.7321C98.7216 16.8375 98.6482 17.012 98.5015 17.012H98.4974Z" fill="#35488B"/>
<path d="M98.9254 11.7105L98.6075 12.0025C98.5749 12.0309 98.5341 12.0471 98.4933 12.0471H94.6659C94.5681 12.0471 94.4907 11.966 94.4988 11.8686L94.5396 11.2967C94.5477 11.2115 94.617 11.1426 94.7067 11.1426H98.5504C98.5952 11.1426 98.6401 11.1629 98.6727 11.1953L98.9295 11.4752C98.9906 11.5441 98.9865 11.6456 98.9213 11.7105H98.9254Z" fill="#35488B"/>
<path d="M99.4471 12.0187L99.1251 16.4238C99.1129 16.5699 98.9335 16.6307 98.8357 16.5252L98.3058 15.9533C98.2732 15.9209 98.2569 15.8762 98.261 15.8276L98.5015 12.5623C98.5015 12.5217 98.5219 12.4811 98.5545 12.4527L99.1659 11.8849C99.2759 11.7835 99.4553 11.8686 99.4471 12.0187Z" fill="#35488B"/>
<path d="M99.8302 6.81048L99.5082 11.2156C99.496 11.3616 99.3167 11.4224 99.2188 11.317L98.6889 10.7451C98.6563 10.7126 98.64 10.668 98.6441 10.6193L98.8846 7.35402C98.8846 7.31345 98.905 7.27289 98.9376 7.2445L99.549 6.67662C99.659 6.57521 99.8384 6.6604 99.8302 6.81048Z" fill="#35488B"/>
</g>
<path opacity="0.4" d="M92.2937 18.8292C92.3141 18.5209 92.5872 18.2654 92.8969 18.2654H99.818C100.165 18.2654 100.429 18.5453 100.405 18.89C100.385 19.2024 100.112 19.4539 99.8017 19.4539H92.8806C92.5342 19.4539 92.2692 19.174 92.2937 18.8292Z" fill="#35488B"/>
<path opacity="0.4" d="M83.628 18.8292C83.6484 18.5209 83.9215 18.2654 84.2313 18.2654H91.1524C91.4989 18.2654 91.7638 18.5453 91.7393 18.89C91.719 19.2024 91.4459 19.4539 91.1361 19.4539H84.215C83.8685 19.4539 83.6036 19.174 83.628 18.8292Z" fill="#35488B"/>
<path opacity="0.4" d="M74.9624 18.8292C74.9828 18.5209 75.2559 18.2654 75.5656 18.2654H82.4867C82.8332 18.2654 83.0981 18.5453 83.0737 18.89C83.0533 19.2024 82.7802 19.4539 82.4704 19.4539H75.5493C75.2029 19.4539 74.9379 19.174 74.9624 18.8292Z" fill="#35488B"/>
<path opacity="0.4" d="M66.2967 18.8292C66.3171 18.5209 66.5902 18.2654 66.9 18.2654H73.8211C74.1676 18.2654 74.4325 18.5453 74.408 18.89C74.3877 19.2024 74.1146 19.4539 73.8048 19.4539H66.8837C66.5372 19.4539 66.2723 19.174 66.2967 18.8292Z" fill="#35488B"/>
<path opacity="0.1" d="M47.1638 52.2609L49.7154 33.4885C49.8825 32.2473 51.032 31.2373 52.2833 31.2373H71.1472C72.3945 31.2373 73.2708 32.2433 73.1037 33.4885L70.5521 52.2609C70.385 53.5021 69.2355 54.5121 67.9842 54.5121H49.1203C47.873 54.5121 46.9967 53.5062 47.1638 52.2609Z" fill="#1A1A1A"/>
<path opacity="0.1" d="M74.029 52.2609L76.5806 33.4885C76.7477 32.2473 77.8971 31.2373 79.1485 31.2373H98.0124C99.2596 31.2373 100.136 32.2433 99.9689 33.4885L97.4173 52.2609C97.2502 53.5021 96.1007 54.5121 94.8494 54.5121H75.9855C74.7382 54.5121 73.8619 53.5062 74.029 52.2609Z" fill="#1A1A1A"/>
<path opacity="0.1" d="M43.532 78.9958L46.0836 60.2234C46.2507 58.9822 47.4002 57.9722 48.6515 57.9722H67.5154C68.7627 57.9722 69.639 58.9781 69.4719 60.2234L66.9203 78.9958C66.7532 80.237 65.6038 81.247 64.3524 81.247H45.4885C44.2413 81.247 43.3649 80.2411 43.532 78.9958Z" fill="#1A1A1A"/>
<path opacity="0.1" d="M70.3972 78.9958L72.9488 60.2234C73.1159 58.9822 74.2654 57.9722 75.5167 57.9722H94.3806C95.6279 57.9722 96.5042 58.9781 96.3371 60.2234L93.7855 78.9958C93.6184 80.237 92.4689 81.247 91.2176 81.247H72.3537C71.1064 81.247 70.2301 80.2411 70.3972 78.9958Z" fill="#1A1A1A"/>
<path d="M45.9084 52.2609L48.46 33.4885C48.6271 32.2473 49.7765 31.2373 51.0279 31.2373H69.8918C71.139 31.2373 72.0154 32.2433 71.8483 33.4885L69.2967 52.2609C69.1296 53.5021 67.9801 54.5121 66.7288 54.5121H47.8649C46.6176 54.5121 45.7413 53.5062 45.9084 52.2609Z" fill="#35488B"/>
<path opacity="0.2" d="M45.9084 52.2609L48.46 33.4885C48.6271 32.2473 49.7765 31.2373 51.0279 31.2373H69.8918C71.139 31.2373 72.0154 32.2433 71.8483 33.4885L69.2967 52.2609C69.1296 53.5021 67.9801 54.5121 66.7288 54.5121H47.8649C46.6176 54.5121 45.7413 53.5062 45.9084 52.2609Z" fill="white"/>
<path d="M72.7735 52.2609L75.3251 33.4885C75.4923 32.2473 76.6417 31.2373 77.8931 31.2373H96.7569C98.0042 31.2373 98.8806 32.2433 98.7134 33.4885L96.1618 52.2609C95.9947 53.5021 94.8453 54.5121 93.5939 54.5121H74.73C73.4828 54.5121 72.6064 53.5062 72.7735 52.2609Z" fill="#35488B"/>
<path opacity="0.2" d="M72.7735 52.2609L75.3251 33.4885C75.4923 32.2473 76.6417 31.2373 77.8931 31.2373H96.7569C98.0042 31.2373 98.8806 32.2433 98.7134 33.4885L96.1618 52.2609C95.9947 53.5021 94.8453 54.5121 93.5939 54.5121H74.73C73.4828 54.5121 72.6064 53.5062 72.7735 52.2609Z" fill="white"/>
<path d="M42.2767 78.9958L44.8283 60.2234C44.9954 58.9822 46.1448 57.9722 47.3962 57.9722H66.2601C67.5073 57.9722 68.3837 58.9781 68.2166 60.2234L65.665 78.9958C65.4978 80.237 64.3484 81.247 63.0971 81.247H44.2332C42.9859 81.247 42.1095 80.2411 42.2767 78.9958Z" fill="#35488B"/>
<path opacity="0.2" d="M42.2767 78.9958L44.8283 60.2234C44.9954 58.9822 46.1448 57.9722 47.3962 57.9722H66.2601C67.5073 57.9722 68.3837 58.9781 68.2166 60.2234L65.665 78.9958C65.4978 80.237 64.3484 81.247 63.0971 81.247H44.2332C42.9859 81.247 42.1095 80.2411 42.2767 78.9958Z" fill="white"/>
<path d="M69.1418 78.9958L71.6934 60.2234C71.8605 58.9822 73.0099 57.9722 74.2613 57.9722H93.1252C94.3724 57.9722 95.2488 58.9781 95.0817 60.2234L92.5301 78.9958C92.3629 80.237 91.2135 81.247 89.9622 81.247H71.0983C69.851 81.247 68.9747 80.2411 69.1418 78.9958Z" fill="#35488B"/>
<path opacity="0.2" d="M69.1418 78.9958L71.6934 60.2234C71.8605 58.9822 73.0099 57.9722 74.2613 57.9722H93.1252C94.3724 57.9722 95.2488 58.9781 95.0817 60.2234L92.5301 78.9958C92.3629 80.237 91.2135 81.247 89.9622 81.247H71.0983C69.851 81.247 68.9747 80.2411 69.1418 78.9958Z" fill="white"/>
<path d="M57.8104 50.6871C56.5672 50.6871 55.6827 49.673 55.8539 48.4358L57.362 37.3217C57.5292 36.0845 58.6868 35.0704 59.9299 35.0704C61.1731 35.0704 62.0576 36.0845 61.8864 37.3217L60.3783 48.4358C60.2112 49.673 59.0536 50.6871 57.8104 50.6871Z" fill="white"/>
<path d="M51.0238 42.8746C51.1909 41.6375 52.3485 40.6234 53.5917 40.6234H64.76C66.0032 40.6234 66.8877 41.6375 66.7165 42.8746C66.5494 44.1118 65.3918 45.1259 64.1486 45.1259H52.9803C51.7371 45.1259 50.8526 44.1118 51.0238 42.8746Z" fill="white"/>
<path d="M48.9409 75.1342C48.1787 74.2581 48.3744 72.8262 49.373 71.95L58.3362 64.089C59.3348 63.2128 60.7777 63.2128 61.5359 64.089C62.2981 64.9652 62.1025 66.397 61.1038 67.2732L52.1406 75.1342C51.142 76.0104 49.6991 76.0104 48.9409 75.1342Z" fill="white"/>
<path d="M50.4409 64.089C51.4395 63.2128 52.8825 63.2128 53.6406 64.089L60.472 71.95C61.2343 72.8262 61.0386 74.2581 60.04 75.1342C59.0414 76.0104 57.5984 76.0104 56.8403 75.1342L50.0089 67.2732C49.2466 66.397 49.4423 64.9652 50.4409 64.089Z" fill="white"/>
<path d="M77.8889 42.8746C78.0561 41.6375 79.2137 40.6234 80.4568 40.6234H91.6252C92.8684 40.6234 93.7529 41.6375 93.5817 42.8746C93.4146 44.1118 92.257 45.1259 91.0138 45.1259H79.8454C78.6023 45.1259 77.7178 44.1118 77.8889 42.8746Z" fill="white"/>
<path d="M74.7341 66.109C74.9012 64.8719 76.0588 63.8578 77.302 63.8578H88.4703C89.7135 63.8578 90.598 64.8719 90.4268 66.109C90.2597 67.3462 89.1021 68.3602 87.8589 68.3602H76.6906C75.4474 68.3602 74.5629 67.3462 74.7341 66.109Z" fill="white"/>
<path d="M73.7844 73.1141C73.9515 71.877 75.1091 70.8629 76.3523 70.8629H87.5206C88.7638 70.8629 89.6483 71.877 89.4771 73.1141C89.31 74.3513 88.1524 75.3654 86.9092 75.3654H75.7409C74.4977 75.3654 73.6132 74.3513 73.7844 73.1141Z" fill="white"/>
<path d="M16.4142 28.0572C15.6805 29.4079 14.9265 30.8682 14.2376 32.296C13.5325 33.7319 12.8844 35.18 12.3137 36.6402C12.1629 37.0053 12.0406 37.3704 11.902 37.7354C11.8287 37.9058 11.7838 38.0964 11.7635 38.3276C11.7227 38.7819 11.8409 39.3823 12.0773 40.0069C12.5542 41.2563 13.455 42.6111 14.3803 43.7914L12.9903 45.4302C12.5705 45.1665 12.2322 44.915 11.8735 44.627C11.523 44.3471 11.1765 44.0551 10.8504 43.7306C10.1942 43.0938 9.58278 42.3799 9.06105 41.5321C8.54747 40.6843 8.11133 39.6865 7.99313 38.4818C7.93199 37.8855 7.9809 37.2446 8.13986 36.62C8.25807 36.1981 8.36405 35.7681 8.4904 35.3504C8.99583 33.6751 9.60724 32.0607 10.2961 30.4909C10.6466 29.7081 11.0053 28.9293 11.4007 28.1708C11.7961 27.4041 12.1792 26.6659 12.648 25.8871L16.4101 28.0531L16.4142 28.0572Z" fill="#F99746"/>
<path d="M13.8137 43.3209L15.864 43.8563L14.3518 46.789C14.3518 46.789 12.8355 46.2171 12.4564 44.8866L13.8137 43.3209Z" fill="#F99746"/>
<path d="M18.6723 44.7812L16.8463 47.0811L14.3477 46.785L15.8639 43.8523L18.6723 44.7812Z" fill="#F99746"/>
<path d="M26.0255 12.5866C26.0704 12.8138 26.2293 12.972 26.3761 12.9395C26.5228 12.9111 26.6084 12.7043 26.5595 12.4771C26.5147 12.25 26.3557 12.0918 26.209 12.1242C26.0622 12.1526 25.9766 12.3595 26.0255 12.5866Z" fill="#1A1A1A"/>
<path d="M26.2089 12.9761C26.2089 12.9761 26.9915 14.1727 27.6844 14.6878C27.3584 15.1421 26.6451 15.1097 26.6451 15.1097L26.2089 12.9801V12.9761Z" fill="#D34747"/>
<path d="M26.5146 14.5093C25.8503 14.5093 25.1899 13.7873 24.9902 12.7975C24.8842 12.2783 24.9168 11.7632 25.084 11.3454C25.2552 10.9195 25.5405 10.6477 25.8951 10.5747C26.2497 10.5058 26.6206 10.6437 26.9426 10.9682C27.2606 11.2886 27.4929 11.751 27.5989 12.2702C27.7048 12.7894 27.6722 13.3046 27.5051 13.7224C27.3339 14.1483 27.0486 14.42 26.694 14.4931C26.6369 14.5052 26.5758 14.5093 26.5146 14.5093ZM26.0744 10.6558C26.0214 10.6558 25.9685 10.6599 25.9155 10.6721C25.5975 10.737 25.3367 10.9884 25.1818 11.3778C25.0228 11.7754 24.9902 12.2743 25.0921 12.7732C25.3 13.7994 26.0092 14.5255 26.6777 14.3876C26.9956 14.3227 27.2565 14.0712 27.4114 13.6818C27.5703 13.2843 27.6029 12.7854 27.501 12.2865C27.3991 11.7875 27.175 11.3413 26.8733 11.0371C26.6247 10.7856 26.3475 10.6558 26.0785 10.6558H26.0744Z" fill="#1A1A1A"/>
<path d="M47.5062 35.9629L50.119 35.4113L50.4573 38.9402C50.4573 38.9402 48.1992 39.3702 47.119 37.5935L47.5062 35.9629Z" fill="#F99746"/>
<path d="M52.589 36.2063L52.4219 38.7779L50.4573 38.9442L50.119 35.4153L52.589 36.2063Z" fill="#F99746"/>
<path d="M24.9372 11.5037C24.9046 11.5037 24.872 11.4915 24.8434 11.4672C24.7864 11.4185 24.7864 11.3292 24.8353 11.2765C25.3448 10.7289 25.9643 10.8263 25.9888 10.8303C26.0622 10.8425 26.1111 10.9115 26.0989 10.9845C26.0866 11.0575 26.0133 11.1062 25.944 11.094C25.9236 11.094 25.4385 11.021 25.0309 11.459C25.0024 11.4874 24.9698 11.5037 24.9331 11.5037H24.9372Z" fill="#1A1A1A"/>
<path d="M19.7321 16.6915C20.1438 18.7805 20.3924 21.6726 18.925 23.0639C18.925 23.0639 19.4998 25.1813 23.3965 25.1813C27.6804 25.1813 25.4589 23.3235 25.4589 23.3235C23.6777 22.7719 23.694 20.7559 24.1016 19.1334L19.7362 16.6915H19.7321Z" fill="#F99746"/>
<path d="M24.1342 22.5569C25.0962 21.8714 26.5228 21.0602 26.8162 21.9039C26.9956 22.415 27.069 24.8893 26.0785 24.7067C24.6152 24.435 24.1342 22.5569 24.1342 22.5569Z" fill="#1A1A1A"/>
<path d="M18.1221 24.4593C17.7389 23.9198 17.7552 22.2203 18.1628 21.9242C18.8191 21.4415 21.6356 21.3279 25.4263 22.1959C25.0187 23.8428 25.891 24.7067 25.891 24.7067L18.1221 24.4634V24.4593Z" fill="#35488B"/>
<path d="M5.38041 120.755C5.66981 120.816 5.95513 120.832 6.09372 120.715C6.15078 120.666 6.21192 120.573 6.15893 120.402C6.1304 120.313 6.07334 120.244 5.98366 120.203C5.59644 120.021 4.70786 120.382 4.6671 120.394C4.64265 120.402 4.62634 120.427 4.62634 120.455C4.62634 120.483 4.63857 120.508 4.66303 120.516C4.79754 120.581 5.08693 120.69 5.37633 120.751L5.38041 120.755ZM5.84508 120.301C5.87361 120.309 5.90214 120.317 5.9266 120.325C5.97959 120.349 6.0122 120.39 6.0285 120.439C6.06518 120.56 6.02035 120.597 6.00404 120.613C5.84915 120.743 5.27851 120.625 4.87498 120.463C5.14808 120.366 5.59236 120.244 5.84508 120.301Z" fill="#35488B"/>
<path d="M4.68338 120.524C4.68338 120.524 4.70376 120.524 4.71599 120.524C5.04208 120.431 5.735 119.94 5.74315 119.615C5.74315 119.558 5.72277 119.449 5.56788 119.396C5.46598 119.36 5.36816 119.368 5.26626 119.421C4.88311 119.615 4.64262 120.406 4.6304 120.439C4.62224 120.463 4.6304 120.487 4.6467 120.508C4.65485 120.516 4.66708 120.524 4.67931 120.528L4.68338 120.524ZM5.49452 119.514C5.49452 119.514 5.5149 119.518 5.52305 119.522C5.60864 119.55 5.60457 119.591 5.60457 119.611C5.60049 119.802 5.14398 120.187 4.80567 120.341C4.89126 120.114 5.08284 119.664 5.3274 119.538C5.38446 119.51 5.43745 119.502 5.49044 119.514H5.49452Z" fill="#35488B"/>
<path d="M26.5472 121.234C26.9141 121.234 27.2687 121.185 27.391 121.019C27.4317 120.962 27.4643 120.865 27.3869 120.723C27.3421 120.646 27.2687 120.593 27.1709 120.564C26.694 120.435 25.6913 121.002 25.6505 121.027C25.6261 121.039 25.6138 121.067 25.6179 121.096C25.622 121.124 25.6424 121.144 25.6709 121.153C25.8543 121.189 26.2089 121.234 26.5513 121.234H26.5472ZM27.0038 120.682C27.0527 120.682 27.0975 120.686 27.1342 120.698C27.1953 120.715 27.2402 120.747 27.2687 120.792C27.3176 120.877 27.2972 120.917 27.2809 120.942C27.1464 121.124 26.4209 121.132 25.891 121.055C26.1559 120.921 26.6695 120.682 27.0038 120.682Z" fill="#35488B"/>
<path d="M25.6831 121.157C25.6831 121.157 25.7035 121.157 25.7117 121.153C26.0581 120.998 26.7429 120.382 26.6899 120.057C26.6777 119.98 26.6247 119.887 26.4372 119.867C26.2986 119.855 26.1723 119.891 26.0622 119.984C25.6994 120.28 25.622 121.051 25.6179 121.084C25.6179 121.108 25.6261 121.132 25.6465 121.144C25.6587 121.153 25.6709 121.157 25.6872 121.157H25.6831ZM26.3842 120.001C26.3842 120.001 26.4127 120.001 26.425 120.001C26.5473 120.013 26.5554 120.061 26.5554 120.078C26.588 120.272 26.1193 120.755 25.7687 120.966C25.8054 120.743 25.9073 120.28 26.1478 120.086C26.2212 120.025 26.2986 119.997 26.3842 119.997V120.001Z" fill="#35488B"/>
<path d="M22.5283 121.088H25.3978L25.6831 114.48H22.8177L22.5283 121.088Z" fill="#F99746"/>
<path d="M1.48779 119.769L4.28803 120.374L7.10457 114.216L4.30026 113.612L1.48779 119.769Z" fill="#F99746"/>
<path d="M4.55703 120.09L1.41033 119.412C1.2962 119.388 1.178 119.445 1.12908 119.55L0.0367067 121.911C-0.0774223 122.154 0.0733911 122.442 0.338333 122.495C1.44294 122.714 1.98913 122.763 3.37498 123.063C4.22687 123.246 6.15076 123.712 7.32466 123.968C8.4741 124.215 8.90616 123.096 8.44557 122.889C6.38717 121.952 5.5312 121.128 4.97279 120.362C4.87089 120.224 4.72415 120.126 4.55703 120.094V120.09Z" fill="#1A1A1A"/>
<path d="M25.3774 120.759H22.247C22.1288 120.759 22.0269 120.84 22.0024 120.954L21.4359 123.489C21.3788 123.753 21.5785 124 21.8476 123.996C22.9766 123.976 24.607 123.911 26.0296 123.911C27.6885 123.911 29.1233 124 31.0675 124C32.2455 124 32.5716 122.816 32.0784 122.71C29.8366 122.223 28.0024 122.171 26.0662 120.982C25.8543 120.852 25.622 120.759 25.3774 120.759Z" fill="#1A1A1A"/>
<path d="M13.7893 23.709C11.1032 24.3215 8.8858 31.1482 8.8858 31.1482L14.2825 35.2409C14.2825 35.2409 16.2634 33.3832 17.1439 29.9678C18.0691 26.3902 16.5365 23.0802 13.7893 23.709Z" fill="#35488B"/>
<path opacity="0.4" d="M13.7893 23.709C11.1032 24.3215 8.8858 31.1482 8.8858 31.1482L14.2825 35.2409C14.2825 35.2409 16.2634 33.3832 17.1439 29.9678C18.0691 26.3902 16.5365 23.0802 13.7893 23.709Z" fill="white"/>
<path d="M29.9018 26.9661L34.4303 31.1116C35.1844 31.8011 35.9384 32.4866 36.6966 33.16C37.4466 33.8333 38.2128 34.5067 38.9425 35.0948L38.3107 34.7581C38.6612 34.8839 39.0281 35.0096 39.4153 35.1151C39.8025 35.2165 40.202 35.3017 40.6136 35.3828C41.437 35.5288 42.297 35.6384 43.1734 35.7073C44.0497 35.7803 44.9465 35.829 45.8473 35.8533C46.744 35.8858 47.6815 35.898 48.5619 35.9061L48.9899 38.0072C48.0279 38.3642 47.1068 38.6197 46.1367 38.8347C45.1747 39.0416 44.1924 39.1916 43.1978 39.2809C42.1992 39.362 41.1843 39.3904 40.1449 39.3214C39.1055 39.2606 38.0417 39.0943 36.9534 38.7779L36.6436 38.6887L36.3216 38.4412C35.4289 37.7557 34.6341 37.0864 33.8311 36.405C33.0404 35.7195 32.2578 35.034 31.4833 34.3404C29.9466 32.945 28.4181 31.5578 26.9182 30.1178L29.9018 26.9701V26.9661Z" fill="#F99746"/>
<path opacity="0.2" d="M16.0922 28.7306C14.633 30.1665 14.1561 32.7869 14.042 35.0624L14.2784 35.245C14.2784 35.245 16.2594 33.3831 17.1439 29.9718C17.1968 29.7568 17.2458 29.5459 17.2824 29.335L16.0882 28.7346L16.0922 28.7306Z" fill="#1A1A1A"/>
<path d="M30.77 26.5686C31.357 29.6514 31.7238 35.9791 30.02 48.5171H14.686C14.58 46.1766 16.0596 34.746 13.7892 23.7089C13.7892 23.7089 16.4183 23.1857 18.921 23.064C20.8815 22.9707 23.7185 22.9099 25.4386 23.064C26.1559 23.1289 26.8652 23.2344 27.4929 23.3439C29.1518 23.6359 30.4562 24.9218 30.7659 26.5686H30.77Z" fill="#35488B"/>
<path opacity="0.4" d="M30.77 26.5686C31.357 29.6514 31.7238 35.9791 30.02 48.5171H14.686C14.58 46.1766 16.0596 34.746 13.7892 23.7089C13.7892 23.7089 16.4183 23.1857 18.921 23.064C20.8815 22.9707 23.7185 22.9099 25.4386 23.064C26.1559 23.1289 26.8652 23.2344 27.4929 23.3439C29.1518 23.6359 30.4562 24.9218 30.7659 26.5686H30.77Z" fill="white"/>
<path opacity="0.2" d="M28.4222 31.1238L31.1939 30.4626C31.2795 32.1338 31.2877 34.2025 31.1613 36.762C29.8855 35.318 28.2592 33.0668 28.4222 31.1238Z" fill="#1A1A1A"/>
<path opacity="0.2" d="M25.6831 114.484L25.5364 117.887H22.6669L22.8136 114.484H25.6831Z" fill="#1A1A1A"/>
<path opacity="0.2" d="M4.30025 113.616L7.10456 114.22L5.64942 117.392L2.84918 116.788L4.30025 113.616Z" fill="#1A1A1A"/>
<path d="M18.3666 13.6372C19.1044 16.3712 19.3938 18.0099 21.0894 19.1456C23.641 20.8574 26.8162 18.8942 26.9181 15.9939C27.0078 13.3857 25.7891 9.34976 22.838 8.79811C19.9318 8.25457 17.6289 10.8993 18.3666 13.6332V13.6372Z" fill="#F99746"/>
<path d="M24.603 13.8441C25.891 13.6656 25.5201 12.181 25.0391 11.459C25.0391 11.459 27.9127 8.03145 24.603 6.64421C21.2932 5.25697 22.1084 7.42301 22.1084 7.42301C22.1084 7.42301 19.5283 5.49629 17.2865 7.04984C15.0447 8.60339 16.9808 9.28078 16.9808 9.28078C16.9808 9.28078 12.8966 10.4733 14.5311 12.5298C16.1656 14.5864 17.8449 14.3755 17.8449 14.3755C17.8449 14.3755 14.4659 15.7018 17.0501 17.1905C19.6302 18.6791 20.5759 18.7481 20.5759 18.7481C21.9902 18.9225 23.3272 18.0585 23.7389 16.6997L24.603 13.8481V13.8441Z" fill="#1A1A1A"/>
<path d="M23.4943 13.8563C23.5392 14.5986 23.8856 15.2922 24.3014 15.7505C24.925 16.436 25.5772 16.0101 25.6913 15.1745C25.7891 14.4241 25.5853 13.1626 24.8231 12.7854C24.069 12.4122 23.4495 13.0126 23.4984 13.8603L23.4943 13.8563Z" fill="#F99746"/>
<path d="M24.5826 48.517C24.5826 48.517 21.3299 70.3194 19.5446 78.4887C17.5881 87.4328 7.10048 117.027 7.10048 117.027L1.96875 115.92C1.96875 115.92 9.30154 91.8014 10.9442 79.2959C12.2037 69.6907 14.6901 48.5129 14.6901 48.5129H24.5867L24.5826 48.517Z" fill="#1A1A1A"/>
<path d="M8.32736 115.324C8.34774 115.328 7.36949 117.169 7.36949 117.169L1.59375 115.924L2.0788 114.196L8.32329 115.32L8.32736 115.324Z" fill="#35488B"/>
<path opacity="0.3" d="M22.5242 56.2848C18.762 57.0189 19.1614 70.9806 19.6139 78.1602C20.6981 73.0858 22.2878 63.3183 23.372 56.3862C23.1233 56.2604 22.8421 56.2239 22.5242 56.2848Z" fill="#1A1A1A"/>
<path d="M30.02 48.517C30.02 48.517 30.4154 69.8489 30.1015 78.5495C29.7755 87.5991 26.6002 117.23 26.6002 117.23H21.7416C21.7416 117.23 21.5623 88.1264 21.3462 79.2391C21.1098 69.5487 19.9359 48.517 19.9359 48.517H30.016H30.02Z" fill="#1A1A1A"/>
<path d="M27.5377 115.303C27.5622 115.303 27.2646 117.311 27.2646 117.311H21.3584L21.1995 115.522L27.5418 115.308L27.5377 115.303Z" fill="#35488B"/>
<path d="M24.762 27.5055C23.3883 31.1927 31.463 35.5369 31.463 35.5369L34.9602 31.0629C34.9602 31.0629 32.6287 26.4428 29.7633 24.3619C26.2253 21.7903 25.8054 24.7027 24.762 27.5096V27.5055Z" fill="#35488B"/>
<path opacity="0.4" d="M24.762 27.5055C23.3883 31.1927 31.463 35.5369 31.463 35.5369L34.9602 31.0629C34.9602 31.0629 32.6287 26.4428 29.7633 24.3619C26.2253 21.7903 25.8054 24.7027 24.762 27.5096V27.5055Z" fill="white"/>
<path d="M47.9627 37.0783C48.5165 37.0783 48.9654 36.7424 48.9654 36.3279C48.9654 35.9135 48.5165 35.5775 47.9627 35.5775C47.4089 35.5775 46.96 35.9135 46.96 36.3279C46.96 36.7424 47.4089 37.0783 47.9627 37.0783Z" fill="#1A1A1A"/>
<path d="M47.5755 38.713C47.5184 38.713 47.4614 38.6886 47.4206 38.64C47.3472 38.5548 47.3595 38.429 47.4451 38.356C47.4695 38.3317 47.9913 37.8612 47.7671 36.7579C47.7467 36.6483 47.816 36.5429 47.926 36.5185C48.0361 36.4983 48.1421 36.5672 48.1665 36.6767C48.4437 38.0315 47.7385 38.64 47.7059 38.6643C47.6693 38.6968 47.6203 38.713 47.5755 38.713Z" fill="#1A1A1A"/>
<path opacity="0.4" d="M48.7779 36.2752C48.7779 36.5835 48.4152 36.8309 47.9627 36.8309C47.5103 36.8309 47.1475 36.5835 47.1475 36.2752C47.1475 35.9669 47.5103 35.7195 47.9627 35.7195C48.4152 35.7195 48.7779 35.9669 48.7779 36.2752Z" fill="white"/>
<path d="M26.0255 23.0964C24.1465 24.4309 20.902 29.5864 20.2987 32.6327C20.2824 32.7219 20.1601 32.7462 20.1112 32.6651C17.3966 28.3574 17.0827 23.9441 17.0501 23.2262C17.0501 23.1694 17.0012 23.1288 16.9441 23.1329C16.667 23.1572 15.9088 23.2221 15.5787 23.2992C15.5338 23.3114 15.5012 23.356 15.5053 23.4006C15.7499 29.1524 18.6601 33.5534 19.7933 34.9042C19.8096 34.9245 19.8177 34.9447 19.8137 34.9691C19.5609 39.5324 19.8952 47.6895 19.9359 48.659C19.9359 48.7117 19.9808 48.7563 20.0378 48.7563H21.2566C21.3136 48.7563 21.3626 48.7117 21.3585 48.6509C21.3055 47.7139 20.9223 40.6276 21.3626 34.819C21.3626 34.819 21.3626 34.8109 21.3626 34.8068C22.0473 30.4828 26.1723 24.6378 27.6152 23.4777C27.6804 23.4249 27.656 23.3235 27.5744 23.3033C26.963 23.1694 26.2579 23.0842 26.0908 23.068C26.0663 23.068 26.0418 23.068 26.0215 23.0842L26.0255 23.0964Z" fill="#35488B"/>
</g>
<defs>
<clipPath id="clip0_51_702">
<rect width="110" height="124" fill="white"/>
</clipPath>
</defs>
</svg>
